/* XPM */
static char *_ff007ef122e493ec3ae303525c1a88a1TuzDjlWbytVe96N[] = {
/* columns rows colors chars-per-pixel */
"32 32 186 2 ",
"   c #3A4849",
".  c #435859",
"X  c #4F595A",
"o  c #4ADEBE",
"O  c #65D2BF",
"+  c #5AD5C0",
"@  c #5EDCC4",
"#  c #66D6C6",
"$  c #62D9C3",
"%  c #64DACC",
"&  c #73D3C5",
"*  c #79D7C7",
"=  c #7DD6CB",
"-  c #77DECD",
";  c #7CDCCE",
":  c #66DFD0",
">  c #7FDCD2",
",  c #41EBCC",
"<  c #54E0C3",
"1  c #57E7CC",
"2  c #5FEACD",
"3  c #4EF1CE",
"4  c #48E7D1",
"5  c #52E5D2",
"6  c #5BE8D5",
"7  c #56EDDA",
"8  c #5EEBD9",
"9  c #58F3D1",
"0  c #51F1D9",
"q  c #68E2CB",
"w  c #72E1CE",
"e  c #62E3D1",
"r  c #64E8D3",
"t  c #6CE9D7",
"y  c #71E6D4",
"u  c #88DED1",
"i  c #A8C6C6",
"p  c #AADEDA",
"a  c #8EE0D4",
"s  c #9BE0D5",
"d  c #9FE6DC",
"f  c #95EEDC",
"g  c #9BEDDD",
"h  c #8DF3DE",
"j  c #93F2DE",
"k  c #99F0DE",
"l  c #A4E5DB",
"z  c #ACE5DD",
"x  c #A6ECDF",
"c  c #AAECDD",
"v  c #B2E2DE",
"b  c #B8E1DB",
"n  c #B4EADD",
"m  c #ACF1DF",
"M  c #9FE7E4",
"N  c #93EEE3",
"B  c #9CECE3",
"V  c #8DF5E2",
"C  c #8EF9E7",
"Z  c #94F3E1",
"A  c #9DF4E4",
"S  c #9EF8E6",
"D  c #9FF7EB",
"F  c #97FEED",
"G  c #9EFFF1",
"H  c #ACE5E2",
"J  c #A5ECE2",
"K  c #ACEDE3",
"L  c #A5EFE8",
"P  c #ABEEE9",
"I  c #B2E6E4",
"U  c #B2ECE5",
"Y  c #B9EDE5",
"T  c #B4EDEB",
"R  c #BDEDEA",
"E  c #A3F4E6",
"W  c #ABF2E5",
"Q  c #A3F9E6",
"!  c #A3F5EA",
"~  c #ABF4E9",
"^  c #A5F9EA",
"/  c #ABF9EC",
"(  c #B3F2E4",
")  c #BCF1E6",
"_  c #B4F3EB",
"`  c #BCF4EB",
"'  c #B5FBED",
"]  c #BBFAEC",
"[  c #AEF7F0",
"{  c #A5FDF1",
"}  c #AEFEF3",
"|  c #B7F5F2",
" . c #BBF5F2",
".. c #B3FEF3",
"X. c #BCFDF3",
"o. c #B3FFF9",
"O. c #BCFFFA",
"+. c #C9DFDD",
"@. c #C6E1DE",
"#. c #CAE3DF",
"$. c #C0EADE",
"%. c #CEE2E0",
"&. c #C3EEE7",
"*. c #C9E8E2",
"=. c #C2EDEA",
"-. c #C8ECEA",
";. c #DDEDEC",
":. c #C3F1E6",
">. c #C3F4EB",
",. c #CCF5ED",
"<. c #C2FDEE",
"1. c #CAFBEE",
"2. c #D4F4EE",
"3. c #DAF6EE",
"4. c #D2FAEF",
"5. c #C2F0F0",
"6. c #CBF6F0",
"7. c #C5FDF3",
"8. c #CBFCF4",
"9. c #CBF7F8",
"0. c #C5FFFA",
"q. c #CBFDFB",
"w. c #D4F6F2",
"e. c #DDF5F2",
"r. c #D3FBF4",
"t. c #DBFBF5",
"y. c #D5FFF9",
"u. c #D0FFFF",
"i. c #D3FDFA",
"p. c #DBFBF8",
"a. c #DEFBF9",
"s. c #DDFFFB",
"d. c #DAFFFC",
"f. c #DFFFFE",
"g. c #DBFEFC",
"h. c #E0F0EF",
"j. c #E7F3F3",
"k. c #E2F7F0",
"l. c #ECF4F6",
"z. c #E4FBF3",
"x. c #E7FCF3",
"c. c #E2FAF6",
"v. c #EAFBF3",
"b. c #ECFDF3",
"n. c #E9FDF2",
"m. c #E7FBF9",
"M. c #E2FCFB",
"N. c #E6FFFB",
"B. c #E1FFFF",
"V. c #E2FFFE",
"C. c #E7FFFD",
"Z. c #E7FFFF",
"A. c #E4FEFD",
"S. c #EBFFF8",
"D. c #EFFEF9",
"F. c #EFFFF8",
"G. c #EEFEFB",
"H. c #EBFFFD",
"J. c #EAFFFD",
"K. c #E9FFFF",
"L. c #EAFFFF",
"P. c #EBFFFF",
"I. c #EFFDFD",
"U. c #ECFFFD",
"Y. c #EEFFFD",
"T. c #EDFFFF",
"R. c #EDFFFF",
"E. c #EEFFFF",
"W. c #EFFFFF",
"Q. c #ECFEFE",
"!. c #F4FFF6",
"~. c #F0FDF6",
"^. c #F3F6FB",
"/. c #F3FFF9",
"(. c #F1FFFA",
"). c #F5FFF8",
"_. c #F6FFF9",
"`. c #F5FFFB",
"'. c #F7FFFB",
"]. c #F1FDFD",
"[. c #F1FFFF",
"{. c #F2FEFE",
"}. c #F7FFFD",
"|. c #F3FEFF",
" X c #F8FFFB",
".X c #FDFCFF",
/* pixels */
"X j.].;.R.N.R.K.C.C.K.K.R.R.].].R.K.R.R.G.G.G.G.|.~._. X_.!. X!.",
"  ;.].m.R.a.B.t.C.C.K.K.R.R.].R.K.K.R.K.R.R.R.R.].v.(._.(._._._.",
". @.M.2.f.s.B.d.y.y.y.p.p.a.a.a.p.y.y.y.p.p.p.a.t.2.k.S.x.n.G.b.",
"i p.-.b >.` ` Y ) ) ` ) =.&.=.&.R ) ) ) ) ) ) :.:.$.,.t.3.3.z.k.",
"B.y.v z R z z K K K K K K K K K K K K c K c c c ( n >.r.2.w.t.e.",
"q.v p ` X.W W ..! E ! ~ ~ ~ ~ W ~ ~ E E E E ~ ~ W c ) 8.6.w.w.2.",
"u.I T X._ J B B ^ ^ ^ ^ ^ ^ / / ! ^ ^ ^ ^ ^ ^ ^ W x _ 7.6.6.w.,.",
"q.H H K J ..} A A A A A A A E E E E E E E E E E / ~ X.q.q.q.y.9.",
"q.T T _ P L ! ! ! D D D D D ! ! E E E E E E E ~ J P _ X.0.7.q.q.",
"q.T T _ P L ! ! ! D ! ! ! ! ! ! / / ~ / ~ ~ P P K P _  .X. .|  .",
"q.T U _ ~ J ! ! ! ! ! ! ! ! ! ! J K K K K I I I T T  .O.O.O.o.o.",
"q.T P _ ~ E ! ! ! ! ! ! ! ! ! W x K U T R R =.R 5. .| [ { { G F ",
"0._ P ~ E E ! E E E E E E E E W _ ` 7.q.d.f.f.d.i.7.P a ; w q @ ",
"0.~ W ~ E A Q A A A E E E E E W W ` q.d.C.K.K.C.f.q.J = O @ < o ",
"O.~ E ^ E A S S S S Q E E E W W c ( 7.p.C.K.K.C.f.q.J * $ 2 9 3 ",
"O.~ E ^ E A Q S S S E E E E W W W ` 8.B.].|.|.R.B.8.d & + 1 3 , ",
"X._ J J / / B E E E ~ W W K W W c ( ,.M.|..X.X}.R.i.P > : 8 0 , ",
"X.' K K ' W J W W W W W W W W W c ( ,.N.|..X.X.XR.i.J = % 8 7 4 ",
"X.] W K _ W c ( W W K W W W W W m ) 6.M.].}..X|.K.q.J = # e 6 5 ",
"] ] _ ( ` ) Y ` ) ( U ( ( ( ~ W ( ] 8.s.K.].|.R.C.8.K u - y t r ",
"` 7.7.>.8.r.6.y.6.,.>.) ] ] ' ' ] <.8.p.c.m.m.c.s.8._ E Z Z C V ",
">.y.p.p.B.C.N.K.M.a.r.1.7.7.X.X.7.7.8.r.t.e.e.t.r.8.<.X...o.o.o.",
"&.s.C.C.].].].|.].J.t.4.8.q.7.X.7.q.9.r.w.w.w.4.4.1.7.7.7.0.0.0.",
"*.M.R.R.|.}.^.^.}.D.3.2.1.8.<.] q.9.9.w.w.t.t.r.r.1.1.1.8.1.,.6.",
"#.N.|.]..X.X.X.X.X^.h.3.y.y.q.<.8.9.r.r.w.2.4.4.1.1.1.8.r.t.a.a.",
"%.J.|.|..X.X.X.X.Xl.;.2.2.8.<.<.q.q.i.r.r.r.r.1.1.1.1.1.w.w.e.e.",
"+.c.].].|.}.^.}.].m.e.2.,.1.<.<.7.8.8.9.6.1.1.1.8.7.8.8.r.w.e.e.",
"@.t.C.C.R.R.R.].C.M.p.r.8.<.7.7.0.0.q.q.q.q.8.7.7.7.7.q.8.y.p.p.",
"-.r.d.y.f.f.d.f.r.8.q.7.X.] ] X.O.O.X.X.7.7.X.X.X.X.X.X.7.7.9.9.",
">.7.` Y >.` ) ` ( _ ( W W W W / ! ! / / W W ~ ~ Q Q Q E / ~ P T ",
"7.` l s J J d g J g g g g A B A f f f g g g g f j j j Z N B M M ",
"q.X.l s J E g A g f f f A A A k Z Z j k k k k j j j h V N N B B "
};
