/* XPM */
static char *c9c574379b7347e9bdc3829f3c3d187cbvqFyZeenXRtX5uQ[] = {
/* columns rows colors chars-per-pixel */
"32 32 182 2 ",
"   c #1D2500",
".  c #262C00",
"X  c #2D2C04",
"o  c #32290A",
"O  c #213000",
"+  c #2C3204",
"@  c #213A00",
"#  c #2E320A",
"$  c #313805",
"%  c #3D350E",
"&  c #393E0E",
"*  c #3E2F12",
"=  c #403F0F",
"-  c #433414",
";  c #49341C",
":  c #463E1A",
">  c #4C3C1D",
",  c #543E1F",
"<  c #4E3B21",
"1  c #573423",
"2  c #583225",
"3  c #553C24",
"4  c #5A3C25",
"5  c #563E2A",
"6  c #5A3D2A",
"7  c #623B2B",
"8  c #294401",
"9  c #334D05",
"0  c #35440A",
"q  c #39460D",
"w  c #364C0B",
"e  c #394C0D",
"r  c #3A510B",
"t  c #3D4511",
"y  c #3B4B13",
"u  c #3E5312",
"i  c #434314",
"p  c #414814",
"a  c #46451A",
"s  c #4C431D",
"d  c #45491A",
"f  c #4C4A1E",
"g  c #50421F",
"h  c #445217",
"j  c #405E16",
"k  c #43541B",
"l  c #476C1F",
"z  c #4E4322",
"x  c #4F4428",
"c  c #534324",
"v  c #594224",
"b  c #544A26",
"n  c #55412A",
"m  c #5A412A",
"M  c #55492B",
"N  c #5A4A2C",
"B  c #535F21",
"V  c #57532D",
"C  c #5B532E",
"Z  c #5E4D33",
"A  c #60412E",
"S  c #60492A",
"D  c #654531",
"F  c #4D6A27",
"G  c #516F24",
"H  c #57662D",
"J  c #526B2A",
"K  c #5D6C2D",
"L  c #556325",
"P  c #537127",
"I  c #55712B",
"U  c #5F6734",
"Y  c #5A6F31",
"T  c #567331",
"R  c #5D7233",
"E  c #6A693D",
"W  c #617132",
"Q  c #777648",
"!  c #767D4C",
"~  c #847F57",
"^  c #58862E",
"/  c #579B2C",
"(  c #599F2D",
")  c #5D9D33",
"_  c #628C38",
"`  c #619E37",
"'  c #6C973E",
"]  c #659D3C",
"[  c #699B3E",
"{  c #5EA235",
"}  c #5FA138",
"|  c #63A537",
" . c #64A33B",
".. c #6CA53D",
"X. c #65A93C",
"o. c #6CA93B",
"O. c #70A63F",
"+. c #71AA3F",
"@. c #6E8341",
"#. c #6B8D41",
"$. c #76854A",
"%. c #7A864C",
"&. c #7B8A4E",
"*. c #758B4A",
"=. c #6F9341",
"-. c #679F42",
";. c #6B9E42",
":. c #749243",
">. c #729D45",
",. c #77964A",
"<. c #7B9349",
"1. c #769D4C",
"2. c #7A9D4D",
"3. c #779750",
"4. c #7B9352",
"5. c #749F50",
"6. c #7A9A53",
"7. c #66A343",
"8. c #6BA343",
"9. c #67AA45",
"0. c #66AC41",
"q. c #6DA942",
"w. c #6BAF41",
"e. c #68AD45",
"r. c #6BAD42",
"t. c #6BA14B",
"y. c #6BA348",
"u. c #6EA049",
"i. c #68AA48",
"p. c #6AAE49",
"a. c #70A741",
"s. c #71A044",
"d. c #72AA41",
"f. c #74A843",
"g. c #75A845",
"h. c #74AC45",
"j. c #78AD47",
"k. c #73A54D",
"l. c #74AC4C",
"z. c #7AAC4B",
"x. c #6AB246",
"c. c #6DB445",
"v. c #6DB349",
"b. c #72B245",
"n. c #74B34C",
"m. c #76A251",
"M. c #77A551",
"N. c #78A153",
"B. c #79A551",
"V. c #7CA757",
"C. c #7DA555",
"Z. c #72AD50",
"A. c #77AB51",
"S. c #7CAB51",
"D. c #7DA359",
"F. c #7DA859",
"G. c #74B151",
"H. c #7CB252",
"J. c #808451",
"K. c #818F52",
"L. c #809051",
"P. c #819F55",
"I. c #839E5B",
"U. c #83A455",
"Y. c #84A956",
"T. c #84A55B",
"R. c #8CA65F",
"E. c #85AD5C",
"W. c #8BAB5E",
"Q. c #8EA664",
"!. c #8BAB63",
"~. c #8FA368",
"^. c #91A466",
"/. c #92AE63",
"(. c #94A36A",
"). c #9AA36E",
"_. c #9BAA6F",
"`. c #87B064",
"'. c #8BB164",
"]. c #93B46D",
"[. c #9DAA74",
"{. c #A4A778",
/* pixels */
"q R 6.N.y.7.9.X.X.| o.o...o.q.q.y.u.y.-.-.-.] ] 7.7.] ] [ [ [ -.",
"q R 6.N.y.7.e.X.X.X.X.o...o.....8.-.8.-.7.7. .7. . . . .-.-.] ] ",
"q R 6.m.y.7.e.X.X.X.o.o.........q.8.7. .]  . . . . . . . .] ` ) ",
"q R 6.m.-.7.0.X.X.X.o.o.......q.q.q. . .} } } } } } X.X.| ) ) / ",
"0 Y 3.5.-.7.0.X.| | o.o.O.o.q.q... . . . .|  .X.| | | | | { ( / ",
"0 R 3.m.-.7.0.X.X.| o.....a.q.q.` ` `  ...........o.| | X.| { { ",
"q R 6.m.y.9.0.X.X.o.....O.......] [ ;.;.s.s.>.;.;.[ .. . .| | } ",
"e R 6.B.y.i.e.X.w.o.+.O.O...[ [ ;.1.1.2.2.,.:.=.:.=.' ' ] ` ` ` ",
"w J W.k.Z.p.e.0.w.o.d.d.f.h.g.k.#.4.*.@.&.K.&.$.$.@.:.#._ ^ S.-.",
"e I !.k.Z.p.x.x.w.w.d.h.h.h.g.B.@ y d t i a i i f p h u j l C.m.",
"r I !.M.G.v.v.c.c.d.h.h.j.j.g.C.O d V b b b b N b s d t k J '.'.",
"r I `.A.G.v.v.c.b.b.h.j.j.z.z.T.  : M c 3 3 3 6 m c b d k J !.T.",
"w P E.k.G.v.v.c.b.b.j.j.z.z.S.T.+ z N n m A 6 7 3 > z i k J !.D.",
"9 G E.k.n.v.v.c.b.b.j.j.z.S.S.T.X > < ; 3 6 2 1 A v b i k I ].`.",
"9 G E.k.n.v.v.c.b.b.j.j.z.z.S.T.$ c m v D D 7 7 6 3 z & e F !.F.",
"9 G E.k.G.v.n.c.b.b.b.j.j.z.S.T.. > b 3 m m 4 4 1 3 b i h I '.C.",
"8 P '.m.l.l.n.n.b.c.b.n.l.l.l.D.+ z c < c v 4 6 4 6 3 s i R W.Y.",
"w T !.1.k.l.n.w.w.o.w.e.p.l.l.D.# < x > c v 4 4 4 6 3 g i K W.Y.",
"y Y Q.6.V.S.H.n.n.n.n.n.A.A.S.T.# < c z b v 4 4 6 6 3 s i K W.Y.",
"0 H ^.I.T.Y.S.z.l.l.l.z.S.V.C.T.X z M c b v 3 4 6 6 3 s i W /.W.",
"& U [.^.Q.U.2.2.>.>.1.N.C.T.T.~.X c Z b c , 3 6 4 6 3 g i W /.W.",
"f E {.)._.^.R.W.W.W.W.Q.Q.Q.Q.(.o n Z b c , 3 m 4 6 3 g i W W.Y.",
"s C ~ Q J.%.&.&.L.4.&.&.$.$.! ! * n m c v v 3 4 4 6 3 g i H U.2.",
"- - b % i i i i t t t t p d d f ; m 3 > m S 4 3 4 6 3 s = L <.:.",
"v v c c s s s a f f f f f a s > m m m v v v 4 6 6 3 3 c i B <.:.",
"m m n v c 3 s s s s z z z z c c m 6 6 4 3 3 3 4 6 3 < c i B <.:.",
"m m m m v v 3 c < < < 3 c n n m 6 6 4 3 , , 3 3 6 3 < c i B <.:.",
"m m m m m m 3 3 3 3 3 3 n n m m 7 6 4 3 , , 3 3 4 3 < c i B <.:.",
"m m 6 6 6 6 6 6 5 3 5 5 n n n 5 7 7 4 4 4 3 4 4 4 3 < c i B <.:.",
"5 n 6 6 6 6 6 6 m 6 6 5 n n 5 6 7 7 7 4 4 v 4 m 4 3 < c i B <.:.",
"3 3 3 5 6 6 5 5 5 5 5 5 5 5 n 5 7 7 7 4 4 v v m 4 3 < c i B <.:.",
"3 3 3 3 5 5 5 5 5 5 5 5 n n n m 7 7 7 4 4 4 4 m 4 3 < z i B <.:."
};
